<svg width="17" height="17" viewBox="0 0 17 17" fill="none" xmlns="http://www.w3.org/2000/svg">
<g clip-path="url(#clip0_24_783)">
<rect width="17" height="17" fill="black" fill-opacity="0.01"/>
<mask id="mask0_24_783" style="mask-type:luminance" maskUnits="userSpaceOnUse" x="0" y="0" width="17" height="17">
<rect width="17" height="17" fill="white"/>
</mask>
<g mask="url(#mask0_24_783)">
</g>
<g clip-path="url(#clip1_24_783)">
<mask id="mask1_24_783" style="mask-type:luminance" maskUnits="userSpaceOnUse" x="0" y="0" width="17" height="17">
<rect width="17" height="17" fill="white"/>
</mask>
<g mask="url(#mask1_24_783)">
<path d="M2.2806 1.74935L1.90495 1.3737L1.90495 1.3737L2.2806 1.74935ZM2.125 15.4062H1.59375V15.9375H2.125V15.4062ZM9.5625 15.4062V15.9375H10.0938V15.4062H9.5625ZM9.4069 1.74935L9.03125 1.3737L8.6556 1.74935L9.03125 2.125L9.4069 1.74935ZM9.4069 1.74935L9.03125 2.125L9.4069 2.50065L9.78255 2.125L9.4069 1.74935ZM1.5293 0.998048L1.15365 0.622398L1.15365 0.622398L1.5293 0.998048ZM10.1582 0.998049L9.78255 1.3737L9.78255 1.3737L10.1582 0.998049ZM10.4305 16.2742L10.0549 15.8986L10.0548 15.8986L10.4305 16.2742ZM9.96096 16.4688V17H9.96098L9.96096 16.4688ZM9.8737 6.15495L9.49805 5.7793L9.8737 6.15495ZM15.4707 6.31055L15.095 6.6862L15.0951 6.6862L15.4707 6.31055ZM10.625 6.90625V6.375H10.0938V6.90625H10.625ZM14.3438 6.90625V7.4375V6.90625ZM10.625 15.4062H10.0938V15.9375H10.625V15.4062ZM14.875 15.4062V15.9375H15.4062V15.4062H14.875ZM14.7194 7.06185L14.3437 6.6862L13.9681 7.06185L14.3438 7.4375L14.7194 7.06185ZM14.7194 7.06185L14.3437 7.4375L14.7194 7.81315L15.095 7.4375L14.7194 7.06185ZM6.90625 13.8125C6.90625 13.2257 6.43055 12.75 5.84375 12.75V13.8125H6.90625ZM6.90625 15.9375V13.8125H5.84375V15.9375H6.90625ZM5.84375 17C6.43055 17 6.90625 16.5243 6.90625 15.9375H5.84375V17ZM4.78125 15.9375C4.78125 16.5243 5.25695 17 5.84375 17V15.9375H4.78125ZM4.78125 13.8125V15.9375H5.84375V13.8125H4.78125ZM5.84375 12.75C5.25695 12.75 4.78125 13.2257 4.78125 13.8125H5.84375V12.75ZM2.65625 2.125C2.66358 2.11767 2.6668 2.1156 2.66584 2.11626C2.66459 2.11713 2.66077 2.11952 2.65497 2.12192C2.64918 2.12432 2.64478 2.12533 2.64329 2.1256C2.64215 2.12581 2.64588 2.125 2.65625 2.125V1.0625C2.36285 1.0625 2.11242 1.16623 1.90495 1.3737L2.65625 2.125ZM2.65625 2.125C2.65625 2.11463 2.65706 2.1109 2.65685 2.11204C2.65658 2.11353 2.65557 2.11793 2.65317 2.12372C2.65077 2.12952 2.64838 2.13334 2.64751 2.13459C2.64685 2.13555 2.64892 2.13233 2.65625 2.125L1.90495 1.3737C1.69748 1.58117 1.59375 1.8316 1.59375 2.125H2.65625ZM2.65625 15.4062V2.125H1.59375V15.4062H2.65625ZM9.5625 14.875H2.125V15.9375H9.5625V14.875ZM9.03125 2.125V15.4062H10.0938V2.125H9.03125ZM9.03125 2.125C9.03858 2.13234 9.04065 2.13555 9.03999 2.13459C9.03912 2.13334 9.03673 2.12952 9.03433 2.12373C9.03193 2.11793 9.03092 2.11354 9.03065 2.11204C9.03044 2.1109 9.03125 2.11463 9.03125 2.125H10.0938C10.0938 1.8316 9.99002 1.58116 9.78255 1.3737L9.03125 2.125ZM9.3774 1.02755L9.03125 1.3737L9.78255 2.125L10.1287 1.77885L9.3774 1.02755ZM9.78255 2.125L10.1287 1.77885L9.3774 1.02755L9.03125 1.3737L9.78255 2.125ZM9.03125 2.125C9.04162 2.125 9.04535 2.12581 9.04421 2.1256C9.04271 2.12533 9.03832 2.12432 9.03252 2.12192C9.02673 2.11952 9.02291 2.11713 9.02166 2.11626C9.0207 2.1156 9.02391 2.11767 9.03125 2.125L9.78255 1.3737C9.57508 1.16623 9.32465 1.0625 9.03125 1.0625V2.125ZM2.65625 2.125H9.03125V1.0625H2.65625V2.125ZM2.65625 0C2.08106 0 1.56037 0.215674 1.15365 0.622398L1.90495 1.3737C2.11241 1.16623 2.36285 1.0625 2.65625 1.0625V0ZM9.03125 0H2.65625V1.0625H9.03125V0ZM10.5339 0.622399C10.1271 0.215675 9.60644 0 9.03125 0V1.0625C9.32465 1.0625 9.57508 1.16623 9.78255 1.3737L10.5339 0.622399ZM11.1562 2.125C11.1562 1.5498 10.9406 1.02912 10.5338 0.622398L9.78255 1.3737C9.99002 1.58117 10.0938 1.8316 10.0938 2.125H11.1562ZM11.1562 15.8047V2.125H10.0938V15.8047H11.1562ZM10.8061 16.6499C11.0313 16.4247 11.1562 16.1232 11.1562 15.8047H10.0938C10.0938 15.8414 10.0808 15.8727 10.0549 15.8986L10.8061 16.6499ZM9.96098 17C10.2794 17 10.581 16.8751 10.8062 16.6499L10.0548 15.8986C10.0289 15.9245 9.99761 15.9375 9.96094 15.9375L9.96098 17ZM9.96094 17H9.96096V15.9375H9.96094V17ZM1.59375 17H9.96094V15.9375H1.59375V17ZM0.53125 15.9375C0.53125 16.5243 1.00695 17 1.59375 17V15.9375H0.53125ZM0.53125 2.125V15.9375H1.59375V2.125H0.53125ZM1.15365 0.622398C0.746924 1.02912 0.53125 1.54981 0.53125 2.125H1.59375C1.59375 1.8316 1.69748 1.58117 1.90495 1.3737L1.15365 0.622398ZM10.625 5.3125C10.1965 5.3125 9.80104 5.47631 9.49805 5.7793L10.2493 6.5306C10.3531 6.42687 10.4783 6.375 10.625 6.375V5.3125ZM14.3438 5.3125H10.625V6.375H14.3438V5.3125ZM15.8464 5.9349C15.4396 5.52817 14.9189 5.3125 14.3438 5.3125V6.375C14.6372 6.375 14.8876 6.47873 15.095 6.6862L15.8464 5.9349ZM16.4688 7.4375C16.4688 6.86231 16.2531 6.34162 15.8463 5.9349L15.0951 6.6862C15.3025 6.89366 15.4062 7.1441 15.4062 7.4375H16.4688ZM16.4688 15.9375V7.4375H15.4062V15.9375H16.4688ZM15.4062 17C15.9931 17 16.4688 16.5243 16.4688 15.9375H15.4062V17ZM10.0938 17H15.4062V15.9375H10.0938V17ZM9.03125 15.9375C9.03125 16.5243 9.50695 17 10.0938 17V15.9375H9.03125ZM9.03125 6.90625V15.9375H10.0938V6.90625H9.03125ZM9.49805 5.7793C9.19506 6.08229 9.03125 6.47776 9.03125 6.90625H10.0938C10.0938 6.75955 10.1456 6.63433 10.2493 6.5306L9.49805 5.7793ZM10.625 7.4375L14.3438 7.4375V6.375L10.625 6.375V7.4375ZM11.1562 15.4062V6.90625H10.0938V15.4062H11.1562ZM14.875 14.875H10.625V15.9375H14.875V14.875ZM14.3438 7.4375V15.4062H15.4062V7.4375H14.3438ZM14.3438 7.4375C14.3511 7.44484 14.3532 7.44805 14.3525 7.44709C14.3516 7.44584 14.3492 7.44202 14.3468 7.43623C14.3444 7.43043 14.3434 7.42604 14.3431 7.42454C14.3429 7.4234 14.3438 7.42713 14.3438 7.4375H15.4062C15.4062 7.1441 15.3025 6.89366 15.095 6.6862L14.3438 7.4375ZM14.7194 6.31055L14.3437 6.6862L15.0951 7.4375L15.4707 7.06185L14.7194 6.31055ZM15.095 7.4375L15.4707 7.06185L14.7194 6.31055L14.3437 6.6862L15.095 7.4375ZM14.3438 7.4375C14.3541 7.4375 14.3579 7.43831 14.3567 7.4381C14.3552 7.43783 14.3508 7.43682 14.345 7.43442C14.3392 7.43202 14.3354 7.42963 14.3342 7.42876C14.3332 7.4281 14.3364 7.43017 14.3437 7.4375L15.095 6.6862C14.8876 6.47873 14.6372 6.375 14.3438 6.375V7.4375Z" fill="#2196F3"/>
<path fill-rule="evenodd" clip-rule="evenodd" d="M3.25654 14.3394C3.10208 14.3596 2.96521 14.3196 2.84593 14.2194C2.72666 14.1192 2.66365 13.9913 2.6569 13.8357C2.65015 13.6801 2.70185 13.5472 2.812 13.437C2.92215 13.3269 3.05504 13.2752 3.21067 13.2819C3.3663 13.2887 3.49421 13.3517 3.59441 13.471C3.69461 13.5902 3.73461 13.7271 3.71441 13.8816C3.6988 14.0009 3.64843 14.1032 3.5633 14.1883C3.47817 14.2735 3.37591 14.3238 3.25654 14.3394ZM3.25654 11.6832C3.10208 11.7034 2.96521 11.6634 2.84593 11.5632C2.72666 11.463 2.66365 11.3351 2.6569 11.1794C2.65015 11.0238 2.70185 10.8909 2.812 10.7808C2.92215 10.6706 3.05504 10.6189 3.21067 10.6257C3.3663 10.6324 3.49421 10.6954 3.59441 10.8147C3.69461 10.934 3.73461 11.0709 3.71441 11.2253C3.6988 11.3447 3.64843 11.4469 3.5633 11.5321C3.47817 11.6172 3.37591 11.6676 3.25654 11.6832ZM3.25654 9.02694C3.10208 9.04714 2.96521 9.00714 2.84593 8.90694C2.72666 8.80674 2.66365 8.67883 2.6569 8.5232C2.65015 8.36756 2.70185 8.23467 2.812 8.12452C2.92215 8.01437 3.05504 7.96267 3.21067 7.96942C3.3663 7.97617 3.49421 8.03919 3.59441 8.15846C3.69461 8.27774 3.73461 8.41461 3.71441 8.56907C3.6988 8.68844 3.64843 8.7907 3.5633 8.87583C3.47817 8.96095 3.37591 9.01133 3.25654 9.02694ZM3.25654 6.37069C3.10208 6.39089 2.96521 6.35089 2.84593 6.25069C2.72666 6.15049 2.66365 6.02258 2.6569 5.86695C2.65015 5.71131 2.70185 5.57842 2.812 5.46827C2.92215 5.35812 3.05504 5.30642 3.21067 5.31317C3.3663 5.31992 3.49421 5.38294 3.59441 5.50221C3.69461 5.62149 3.73461 5.75835 3.71441 5.91282C3.6988 6.03219 3.64843 6.13444 3.5633 6.21957C3.47817 6.3047 3.37591 6.35508 3.25654 6.37069ZM3.2568 3.71465C3.10234 3.73486 2.96547 3.69486 2.84619 3.59466C2.72692 3.49446 2.66391 3.36654 2.65716 3.21091C2.6504 3.05528 2.7021 2.92239 2.81226 2.81224C2.92241 2.70209 3.0553 2.65039 3.21093 2.65714C3.36656 2.66389 3.49447 2.7269 3.59467 2.84618C3.69487 2.96545 3.73487 3.10232 3.71467 3.25678C3.69906 3.37616 3.64869 3.47841 3.56356 3.56354C3.47843 3.64867 3.37617 3.69904 3.2568 3.71465ZM5.91279 11.6832C5.75833 11.7034 5.62146 11.6634 5.50218 11.5632C5.38291 11.463 5.3199 11.3351 5.31315 11.1794C5.30639 11.0238 5.35809 10.8909 5.46825 10.7808C5.5784 10.6706 5.71129 10.6189 5.86692 10.6257C6.02255 10.6324 6.15046 10.6954 6.25066 10.8147C6.35086 10.934 6.39086 11.0709 6.37066 11.2253C6.35505 11.3447 6.30468 11.4469 6.21955 11.5321C6.13442 11.6172 6.03217 11.6676 5.91279 11.6832ZM5.91279 9.02694C5.75833 9.04714 5.62146 9.00714 5.50218 8.90694C5.38291 8.80674 5.3199 8.67883 5.31315 8.5232C5.30639 8.36756 5.35809 8.23467 5.46825 8.12452C5.5784 8.01437 5.71129 7.96267 5.86692 7.96942C6.02255 7.97617 6.15046 8.03919 6.25066 8.15846C6.35086 8.27774 6.39086 8.41461 6.37066 8.56907C6.35505 8.68844 6.30468 8.7907 6.21955 8.87583C6.13442 8.96095 6.03217 9.01133 5.91279 9.02694ZM5.91279 6.37069C5.75833 6.39089 5.62146 6.35089 5.50218 6.25069C5.38291 6.15049 5.3199 6.02258 5.31315 5.86695C5.30639 5.71131 5.3581 5.57842 5.46825 5.46827C5.5784 5.35812 5.71129 5.30642 5.86692 5.31317C6.02255 5.31992 6.15046 5.38294 6.25066 5.50221C6.35086 5.62149 6.39086 5.75835 6.37066 5.91282C6.35505 6.03219 6.30468 6.13444 6.21955 6.21957C6.13442 6.3047 6.03217 6.35507 5.91279 6.37069ZM5.91279 3.71444C5.75833 3.73464 5.62146 3.69464 5.50218 3.59444C5.38291 3.49424 5.3199 3.36633 5.31315 3.2107C5.3064 3.05506 5.3581 2.92217 5.46825 2.81202C5.5784 2.70187 5.71129 2.65017 5.86692 2.65692C6.02255 2.66367 6.15047 2.72669 6.25066 2.84596C6.35086 2.96524 6.39086 3.10211 6.37066 3.25657C6.35505 3.37594 6.30468 3.47819 6.21955 3.56332C6.13442 3.64845 6.03216 3.69883 5.91279 3.71444ZM8.56904 14.3394C8.41458 14.3596 8.27771 14.3196 8.15843 14.2194C8.03916 14.1192 7.97615 13.9913 7.9694 13.8357C7.96265 13.6801 8.01435 13.5472 8.1245 13.437C8.23465 13.3269 8.36754 13.2752 8.52317 13.2819C8.6788 13.2887 8.80671 13.3517 8.90691 13.471C9.00711 13.5902 9.04711 13.7271 9.02691 13.8816C9.0113 14.0009 8.96093 14.1032 8.8758 14.1883C8.79067 14.2735 8.68841 14.3238 8.56904 14.3394ZM8.56904 11.6832C8.41458 11.7034 8.27771 11.6634 8.15843 11.5632C8.03916 11.463 7.97615 11.3351 7.9694 11.1794C7.96265 11.0238 8.01435 10.8909 8.1245 10.7808C8.23465 10.6706 8.36754 10.6189 8.52317 10.6257C8.6788 10.6324 8.80671 10.6954 8.90691 10.8147C9.00711 10.934 9.04711 11.0709 9.02691 11.2253C9.0113 11.3447 8.96093 11.4469 8.8758 11.5321C8.79067 11.6172 8.68841 11.6676 8.56904 11.6832ZM8.56904 9.02694C8.41458 9.04714 8.27771 9.00714 8.15843 8.90694C8.03916 8.80674 7.97615 8.67883 7.9694 8.52319C7.96265 8.36756 8.01435 8.23467 8.1245 8.12452C8.23465 8.01437 8.36754 7.96267 8.52317 7.96942C8.6788 7.97617 8.80671 8.03919 8.90691 8.15846C9.00711 8.27774 9.04711 8.41461 9.02691 8.56907C9.0113 8.68844 8.96093 8.7907 8.8758 8.87582C8.79067 8.96096 8.68841 9.01133 8.56904 9.02694Z" fill="#2196F3"/>
<ellipse cx="8.49998" cy="5.84349" rx="0.52959" ry="0.532246" transform="rotate(-45 8.49998 5.84349)" fill="#2196F3"/>
<path fill-rule="evenodd" clip-rule="evenodd" d="M8.56934 3.71467C8.41488 3.73487 8.27801 3.69487 8.15874 3.59467C8.03946 3.49447 7.97645 3.36655 7.9697 3.21092C7.96295 3.05529 8.01465 2.9224 8.1248 2.81225C8.23495 2.7021 8.36784 2.6504 8.52347 2.65715C8.6791 2.6639 8.80702 2.72691 8.90722 2.84619C9.00742 2.96547 9.04742 3.10233 9.02722 3.2568C9.0116 3.37617 8.96123 3.47842 8.8761 3.56355C8.79097 3.64868 8.68872 3.69905 8.56934 3.71467ZM13.2812 13.2812C13.1345 13.2812 13.0093 13.3331 12.9056 13.4368C12.8019 13.5406 12.75 13.6658 12.75 13.8125C12.75 13.9592 12.8019 14.0844 12.9056 14.1881C13.0093 14.2919 13.1345 14.3437 13.2812 14.3437C13.4279 14.3437 13.5532 14.2919 13.6569 14.1881C13.7606 14.0844 13.8125 13.9592 13.8125 13.8125C13.8125 13.6658 13.7606 13.5406 13.6569 13.4368C13.5532 13.3331 13.4279 13.2812 13.2812 13.2812ZM13.2812 10.625C13.1345 10.625 13.0093 10.6769 12.9056 10.7806C12.8019 10.8843 12.75 11.0095 12.75 11.1562C12.75 11.3029 12.8019 11.4282 12.9056 11.5319C13.0093 11.6356 13.1345 11.6875 13.2812 11.6875C13.4279 11.6875 13.5532 11.6356 13.6569 11.5319C13.7606 11.4282 13.8125 11.3029 13.8125 11.1562C13.8125 11.0095 13.7606 10.8843 13.6569 10.7806C13.5532 10.6769 13.4279 10.625 13.2812 10.625ZM13.2812 7.96874C13.1345 7.96874 13.0093 8.02061 12.9056 8.12434C12.8019 8.22808 12.75 8.35329 12.75 8.49999C12.75 8.64669 12.8019 8.77191 12.9056 8.87564C13.0093 8.97938 13.1345 9.03124 13.2812 9.03124C13.4279 9.03124 13.5532 8.97938 13.6569 8.87564C13.7606 8.77191 13.8125 8.64669 13.8125 8.49999C13.8125 8.35329 13.7606 8.22808 13.6569 8.12434C13.5532 8.02061 13.4279 7.96874 13.2812 7.96874ZM11.1562 13.2812C11.0095 13.2812 10.8843 13.3331 10.7806 13.4368C10.6769 13.5406 10.625 13.6658 10.625 13.8125C10.625 13.9592 10.6769 14.0844 10.7806 14.1881C10.8843 14.2919 11.0095 14.3437 11.1562 14.3437C11.3029 14.3437 11.4282 14.2919 11.5319 14.1881C11.6356 14.0844 11.6875 13.9592 11.6875 13.8125C11.6875 13.6658 11.6356 13.5406 11.5319 13.4368C11.4282 13.3331 11.3029 13.2812 11.1562 13.2812ZM11.1562 10.625C11.0095 10.625 10.8843 10.6769 10.7806 10.7806C10.6769 10.8843 10.625 11.0095 10.625 11.1562C10.625 11.3029 10.6769 11.4282 10.7806 11.5319C10.8843 11.6356 11.0095 11.6875 11.1562 11.6875C11.3029 11.6875 11.4282 11.6356 11.5319 11.5319C11.6356 11.4282 11.6875 11.3029 11.6875 11.1562C11.6875 11.0095 11.6356 10.8843 11.5319 10.7806C11.4282 10.6769 11.3029 10.625 11.1562 10.625ZM11.1562 7.96874C11.0095 7.96874 10.8843 8.02061 10.7806 8.12434C10.6769 8.22808 10.625 8.35329 10.625 8.49999C10.625 8.64669 10.6769 8.77191 10.7806 8.87564C10.8843 8.97938 11.0095 9.03124 11.1562 9.03124C11.3029 9.03124 11.4282 8.97938 11.5319 8.87564C11.6356 8.77191 11.6875 8.64669 11.6875 8.49999C11.6875 8.35329 11.6356 8.22808 11.5319 8.12434C11.4282 8.02061 11.3029 7.96874 11.1562 7.96874Z" fill="#2196F3"/>
</g>
</g>
</g>
<defs>
<clipPath id="clip0_24_783">
<rect width="17" height="17" fill="white"/>
</clipPath>
<clipPath id="clip1_24_783">
<rect width="17" height="17" fill="white"/>
</clipPath>
</defs>
</svg>
