<svg width="17" height="17" viewBox="0 0 17 17" fill="none" xmlns="http://www.w3.org/2000/svg">
<g clip-path="url(#clip0_24_820)">
<rect width="16.2969" height="16.2969" fill="black" fill-opacity="0.01"/>
<mask id="mask0_24_820" style="mask-type:luminance" maskUnits="userSpaceOnUse" x="0" y="0" width="17" height="17">
<rect width="16.2969" height="16.2969" fill="white"/>
</mask>
<g mask="url(#mask0_24_820)">
</g>
<g clip-path="url(#clip1_24_820)">
<mask id="mask1_24_820" style="mask-type:luminance" maskUnits="userSpaceOnUse" x="0" y="0" width="17" height="17">
<rect width="16.2969" height="16.2969" fill="white"/>
</mask>
<g mask="url(#mask1_24_820)">
<path d="M2.54639 6.74792V14.2598C2.54639 14.4004 2.59611 14.5204 2.69555 14.6199C2.79499 14.7193 2.91503 14.769 3.05566 14.769H6.11133V10.4402C6.11133 10.2292 6.18591 10.0492 6.33507 9.90002C6.48424 9.75085 6.66429 9.67627 6.87524 9.67627H9.42163C9.63258 9.67627 9.81264 9.75085 9.9618 9.90001C10.111 10.0492 10.1855 10.2292 10.1855 10.4402V14.769H13.2412C13.3818 14.769 13.5019 14.7193 13.6013 14.6199C13.7008 14.5204 13.7505 14.4004 13.7505 14.2598V6.74792" stroke="#4CAF50" stroke-width="1.01855" stroke-linecap="round" stroke-linejoin="round"/>
<path d="M15.6305 7.78055L15.2783 8.14844L15.6305 7.78055ZM8.85416 1.2939L8.49092 1.65086L8.49637 1.65641L8.502 1.66179L8.85416 1.2939ZM15.6462 8.50061L16.0141 8.85277V8.85277L15.6462 8.50061ZM14.9262 8.51633L14.574 8.88422L14.574 8.88422L14.9262 8.51633ZM8.15864 2.03811L8.51081 1.67022L8.3816 1.54654L8.20343 1.53081L8.15864 2.03811ZM8.1486 2.03767L8.14769 2.54695H8.14769L8.1486 2.03767ZM8.13824 2.03811L8.09376 1.53078L7.91541 1.54642L7.78608 1.67022L8.13824 2.03811ZM1.37072 8.51633L1.72288 8.88422H1.72288L1.37072 8.51633ZM0.650665 8.50061L0.282773 8.85277L0.282774 8.85277L0.650665 8.50061ZM0.666391 7.78055L0.314227 7.41266H0.314227L0.666391 7.78055ZM7.44315 1.29348L7.79532 1.66137L7.8006 1.65632L7.80573 1.65111L7.44315 1.29348ZM8.15043 1.01912L8.14951 1.52839L8.15043 1.01912ZM12.2227 2.54639H12.7319V2.03711H12.2227V2.54639ZM11.7134 2.54639V2.03711H11.2041V2.54639H11.7134ZM15.9826 7.41266L9.20632 0.926009L8.502 1.66179L15.2783 8.14844L15.9826 7.41266ZM16.0141 8.85277C16.4031 8.44641 16.389 7.80165 15.9826 7.41266L15.2783 8.14844H15.2783L16.0141 8.85277ZM14.574 8.88422C14.9804 9.27321 15.6251 9.25913 16.0141 8.85277L15.2783 8.14844L15.2783 8.14844L14.574 8.88422ZM7.80648 2.40601L14.574 8.88422L15.2783 8.14844L8.51081 1.67022L7.80648 2.40601ZM8.14769 2.54695C8.13633 2.54693 8.12506 2.54641 8.11385 2.54542L8.20343 1.53081C8.18602 1.52927 8.168 1.52843 8.14951 1.52839L8.14769 2.54695ZM8.18273 2.54544C8.1711 2.54646 8.15943 2.54697 8.14769 2.54695L8.14951 1.52839C8.1304 1.52836 8.11177 1.5292 8.09376 1.53078L8.18273 2.54544ZM1.72288 8.88422L8.49041 2.406L7.78608 1.67022L1.01856 8.14844L1.72288 8.88422ZM0.282774 8.85277C0.671764 9.25913 1.31652 9.27321 1.72288 8.88422L1.01856 8.14844H1.01856L0.282774 8.85277ZM0.314227 7.41266C-0.0921342 7.80165 -0.106216 8.44641 0.282773 8.85277L1.01856 8.14844L1.01856 8.14844L0.314227 7.41266ZM7.09099 0.925592L0.314227 7.41266L1.01856 8.14844L7.79532 1.66137L7.09099 0.925592ZM8.15134 0.509841C7.85062 0.509302 7.41561 0.596178 7.08057 0.935854L7.80573 1.65111C7.88618 1.56955 8.01739 1.52816 8.14951 1.52839L8.15134 0.509841ZM9.2174 0.936943C8.88428 0.597952 8.45049 0.510377 8.15134 0.509841L8.14951 1.52839C8.28143 1.52863 8.41183 1.57038 8.49092 1.65086L9.2174 0.936943ZM11.2041 1.01856C10.6416 1.01856 10.1855 1.47458 10.1855 2.03711H11.2041V1.01856ZM12.7319 1.01856H11.2041V2.03711H12.7319V1.01856ZM13.7505 2.03711C13.7505 1.47458 13.2945 1.01856 12.7319 1.01856V2.03711H13.7505ZM13.7505 5.69755V2.03711H12.7319V5.69755H13.7505ZM12.7319 6.7161C13.2945 6.7161 13.7505 6.26008 13.7505 5.69755H12.7319V6.7161ZM11.7134 5.69755C11.7134 6.26008 12.1694 6.7161 12.7319 6.7161V5.69755H11.7134ZM11.7134 2.54639V5.69755H12.7319V2.54639H11.7134ZM11.7134 3.05567H12.2227V2.03711H11.7134V3.05567ZM12.2227 4.23337V2.54639H11.2041V4.23337H12.2227ZM11.2041 5.25193C11.7666 5.25193 12.2227 4.7959 12.2227 4.23337H11.2041V5.25193ZM10.1855 4.23337C10.1855 4.7959 10.6416 5.25193 11.2041 5.25193V4.23337H10.1855ZM10.1855 2.03711V4.23337H11.2041V2.03711H10.1855Z" fill="#4CAF50"/>
</g>
</g>
</g>
<defs>
<clipPath id="clip0_24_820">
<rect width="16.2969" height="16.2969" fill="white"/>
</clipPath>
<clipPath id="clip1_24_820">
<rect width="16.2969" height="16.2969" fill="white"/>
</clipPath>
</defs>
</svg>
