<svg width="16" height="16" viewBox="0 0 16 16" fill="none" xmlns="http://www.w3.org/2000/svg">
<g clip-path="url(#clip0_24_835)">
<rect width="16" height="16" fill="black" fill-opacity="0.01"/>
<mask id="mask0_24_835" style="mask-type:luminance" maskUnits="userSpaceOnUse" x="0" y="0" width="16" height="16">
<rect width="16" height="16" fill="white"/>
</mask>
<g mask="url(#mask0_24_835)">
</g>
<g clip-path="url(#clip1_24_835)">
<mask id="mask1_24_835" style="mask-type:luminance" maskUnits="userSpaceOnUse" x="0" y="0" width="16" height="16">
<rect width="16" height="16" fill="white"/>
</mask>
<g mask="url(#mask1_24_835)">
<path d="M14 8C14 4.6875 11.3125 2 8 2C4.6875 2 2 4.6875 2 8C2 11.3125 4.6875 14 8 14C11.3125 14 14 11.3125 14 8Z" stroke="#FF5252"/>
<path d="M9 5.5C9 4.94772 8.55228 4.5 8 4.5V5.5H9ZM9 10.5V5.5H8V10.5H9ZM8 11.5C8.55228 11.5 9 11.0523 9 10.5H8V11.5ZM7 10.5C7 11.0523 7.44772 11.5 8 11.5V10.5H7ZM7 5.5V10.5H8V5.5H7ZM8 4.5C7.44772 4.5 7 4.94772 7 5.5H8V4.5ZM5.5 7C4.94772 7 4.5 7.44772 4.5 8H5.5V7ZM10.5 7H5.5V8H10.5V7ZM11.5 8C11.5 7.44772 11.0523 7 10.5 7V8H11.5ZM10.5 9C11.0523 9 11.5 8.55228 11.5 8H10.5V9ZM5.5 9H10.5V8H5.5V9ZM4.5 8C4.5 8.55228 4.94772 9 5.5 9V8H4.5Z" fill="#FF5252"/>
</g>
</g>
</g>
<defs>
<clipPath id="clip0_24_835">
<rect width="16" height="16" fill="white"/>
</clipPath>
<clipPath id="clip1_24_835">
<rect width="16" height="16" fill="white"/>
</clipPath>
</defs>
</svg>
